#!OML:ASF E:\Mandelcareful walks\Project 1\Capture day 1\Session 1\Subject1.ASF
:FULLY-SPECIFIED
:DEGREES
988
root 34.4252 15.4995 -6.94889 -166.969 -56.2176 175.112
lowerback 31.2901 2.80355 -3.85324
upperback 8.37022 0.926015 -1.8104
thorax -7.70017 -0.0473181 -0.080866
lowerneck -22.0422 12.6499 7.03467
upperneck 19.8993 20.5107 -20.5649
head 13.6341 7.0935 -5.02034
rclavicle -3.26007e-014 -2.64384e-014
rhumerus -20.4839 3.2803 -81.8352
rradius 44.9165
rwrist -22.5019
rhand -15.7695 -21.5605
rfingers 7.12502
rthumb 10.4225 -51.2822
lclavicle -3.26007e-014 -2.64384e-014
lhumerus -21.207 -10.8342 82.1596
lradius 42.284
lwrist 23.3704
lhand -25.2245 -11.6257
lfingers 7.12502
lthumb 1.29472 18.3502
rfemur -48.4855 -9.64822 12.6042
rtibia 48.0525
rfoot -6.26957 -1.80195
rtoes 3.87911
lfemur -18.6821 -10.38 -10.8409
ltibia 55.2059
lfoot -25.2543 -13.4495
ltoes 3.9499
989
root 34.4153 15.4907 -7.14788 -166.198 -57.3215 174.497
lowerback 31.3402 2.61937 -3.51389
upperback 8.4288 0.793675 -1.89638
thorax -7.64731 -0.109259 -0.325307
lowerneck -22.1941 12.5482 7.00331
upperneck 19.8138 20.3569 -20.5404
head 13.5955 7.02851 -5.03245
rclavicle -3.04141e-014 -2.8625e-014
rhumerus -20.2671 2.85486 -81.8919
rradius 44.8779
rwrist -22.8742
rhand -15.94 -21.8909
rfingers 7.12502
rthumb 10.2581 -51.6207
lclavicle -3.04141e-014 -2.8625e-014
lhumerus -21.2336 -10.7637 81.9035
lradius 42.3736
lwrist 23.6889
lhand -25.9709 -12.7152
lfingers 7.12502
lthumb 0.573898 17.2638
rfemur -48.616 -9.93332 12.7461
rtibia 49.1692
rfoot -7.47424 -2.26107
rtoes 3.20373
lfemur -18.6457 -11.4981 -10.2132
ltibia 54.7229
lfoot -24.6108 -13.8553
ltoes 3.40829
990
root 34.4009 15.4792 -7.3509 -165.622 -58.2419 174.091
lowerback 31.4019 2.47066 -3.34814
upperback 8.42205 0.670686 -1.8665
thorax -7.6797 -0.161691 -0.343623
lowerneck -22.0601 12.5524 7.05241
upperneck 19.681 20.3489 -20.6227
head 13.5316 7.04219 -5.07296
rclavicle -5.25785e-014 4.35338e-014
rhumerus -20.148 2.73028 -81.8968
rradius 44.9125
rwrist -23.3713
rhand -16.1861 -22.1855
rfingers 7.12502
rthumb 10.0206 -51.927
lclavicle -5.25785e-014 4.35338e-014
lhumerus -21.337 -10.3918 81.8064
lradius 42.1351
lwrist 23.4819
lhand -25.768 -12.0807
lfingers 7.12502
lthumb 0.769831 17.8976
rfemur -48.9715 -11.8966 13.7938
rtibia 50.2344
rfoot -8.50796 -0.861204
rtoes 3.59713
lfemur -18.4927 -12.2597 -9.51807
ltibia 54.223
lfoot -24.132 -14.041
ltoes 2.61802
991
root 34.382 15.4823 -7.55722 -165.18 -58.9792 173.735
lowerback 31.5439 2.35811 -3.33713
upperback 8.32037 0.547252 -1.83099
thorax -7.86006 -0.208443 -0.267861
lowerneck -21.8376 12.6057 7.06429
upperneck 19.7211 20.4207 -20.5759
head 13.5081 7.09474 -5.04823
rclavicle 4.12478e-014 -1.66979e-014
rhumerus -20.2248 2.78033 -82.0048
rradius 44.9195
rwrist -23.7312
rhand -16.3367 -22.3482
rfingers 7.12502
rthumb 9.87529 -52.0966
lclavicle 4.12478e-014 -1.66979e-014
lhumerus -21.6804 -9.81465 81.6719
lradius 41.8471
lwrist 23.0527
lhand -25.8623 -12.0372
lfingers 7.12502
lthumb 0.6787 17.9415
rfemur -48.8332 -11.7818 14.0175
rtibia 51.2015
rfoot -10.0606 -1.36914
rtoes 4.99922
lfemur -18.1321 -12.8697 -8.89844
ltibia 53.6749
lfoot -23.6352 -14.0508
ltoes 1.95611
992
root 34.3635 15.4775 -7.761 -164.801 -59.632 173.352
lowerback 31.7804 2.38419 -3.1001
upperback 8.42169 0.609279 -2.00529
thorax -7.85025 -0.187516 -0.626505
lowerneck -22.8433 12.5054 7.11096
upperneck 20.3319 20.2576 -20.0722
head 13.8573 6.98013 -4.88314
rclavicle -4.67144e-014 6.49032e-014
rhumerus -20.0674 2.00168 -82.2623
rradius 44.8459
rwrist -24.0015
rhand -16.4827 -22.6041
rfingers 7.12502
rthumb 9.73444 -52.3591
lclavicle -4.67144e-014 6.49032e-014
lhumerus -21.551 -10.1665 81.3313
lradius 41.5788
lwrist 22.7218
lhand -26.6012 -12.5265
lfingers 7.12502
lthumb -0.0349398 17.4532
rfemur -48.6671 -11.7433 14.3015
rtibia 52.1421
rfoot -11.4824 -1.84922
rtoes 5.83829
lfemur -17.6661 -13.5299 -8.36556
ltibia 53.1279
lfoot -23.079 -13.9129
ltoes 1.47486
993
root 34.3479 15.4719 -7.96353 -163.967 -60.1799 172.77
lowerback 31.6463 2.36578 -3.46736
upperback 8.30084 0.518263 -1.90505
thorax -7.9298 -0.213087 -0.267938
lowerneck -22.552 12.6211 7.0827
upperneck 20.1973 20.4529 -20.223
head 13.7976 7.07355 -4.89557
rclavicle 1.98785e-014 1.17283e-014
rhumerus -20.098 2.21624 -82.235
rradius 44.5919
rwrist -24.171
rhand -16.9476 -23.3954
rfingers 7.12502
rthumb 9.28588 -53.1709
lclavicle 1.98785e-014 1.17283e-014
lhumerus -21.943 -9.65616 81.401
lradius 41.188
lwrist 22.2483
lhand -27.3949 -12.2621
lfingers 7.12502
lthumb -0.801487 17.7161
rfemur -48.9389 -12.1887 14.779
rtibia 53.0237
rfoot -12.5712 -1.93025
rtoes 5.71244
lfemur -17.5017 -13.8863 -7.88964
ltibia 52.5914
lfoot -22.4309 -13.8183
ltoes 1.19704
994
root 34.3157 15.4687 -8.16142 -163.29 -60.5279 172.077
lowerback 31.6588 2.47115 -3.7718
upperback 8.2543 0.566198 -1.89842
thorax -7.99259 -0.182495 -0.103773
lowerneck -22.0774 12.7146 7.23548
upperneck 19.8311 20.5667 -20.569
head 13.646 7.15535 -5.03079
rclavicle -8.00108e-015 -5.50634e-014
rhumerus -20.2496 2.22191 -82.2364
rradius 44.3867
rwrist -23.8745
rhand -17.5161 -24.2964
rfingers 7.12502
rthumb 8.73731 -54.0955
lclavicle -8.00108e-015 -5.50634e-014
lhumerus -22.0711 -9.3875 81.4296
lradius 40.5926
lwrist 21.909
lhand -28.1686 -11.7506
lfingers 7.12502
lthumb -1.54877 18.2235
rfemur -48.8281 -12.2138 14.9245
rtibia 53.8239
rfoot -13.6011 -2.17558
rtoes 5.65171
lfemur -16.9344 -14.1734 -7.73028
ltibia 52.1023
lfoot -21.9083 -13.6342
ltoes 0.890624
995
root 34.2825 15.462 -8.35528 -162.957 -60.8014 171.662
lowerback 31.6508 2.57576 -3.90427
upperback 8.37178 0.641099 -1.94812
thorax -7.85696 -0.154588 -0.109999
lowerneck -22.523 12.6142 7.05009
upperneck 19.9781 20.4259 -20.2481
head 13.6959 7.08032 -4.89701
rclavicle 7.86193e-014 3.33461e-014
rhumerus -20.2439 2.00415 -82.2506
rradius 44.1105
rwrist -23.6762
rhand -16.1943 -21.2822
rfingers 7.12502
rthumb 10.0127 -51.024
lclavicle 7.86193e-014 3.33461e-014
lhumerus -21.9961 -9.00979 81.336
lradius 40.1518
lwrist 21.6842
lhand -28.7827 -12.1519
lfingers 7.12502
lthumb -2.14183 17.8171
rfemur -48.5603 -12.028 15.1619
rtibia 54.4697
rfoot -14.5538 -2.49163
rtoes 5.85925
lfemur -16.2761 -14.4019 -7.46746
ltibia 51.6313
lfoot -21.244 -13.5237
ltoes 1.15268
996
root 34.257 15.4586 -8.54641 -162.66 -61.1873 171.476
lowerback 31.4044 2.61822 -3.75102
upperback 8.52597 0.743442 -2.03415
thorax -7.56541 -0.114959 -0.328201
lowerneck -22.9963 12.3937 6.80827
upperneck 19.9178 20.0894 -19.934
head 13.6285 6.93165 -4.79502
rclavicle 5.72003e-014 -1.47598e-014
rhumerus -20.1623 1.59768 -82.3298
rradius 43.8214
rwrist -23.3907
rhand -16.2547 -22.1405
rfingers 7.12502
rthumb 9.95444 -51.8852
lclavicle 5.72003e-014 -1.47598e-014
lhumerus -21.8175 -8.82105 81.1454
lradius 39.7815
lwrist 21.8348
lhand -28.4761 -12.9119
lfingers 7.12502
lthumb -1.84574 17.0598
rfemur -48.4994 -12.2488 15.7802
rtibia 54.9888
rfoot -15.3179 -2.58533
rtoes 5.97261
lfemur -15.9382 -14.4619 -6.92651
ltibia 51.247
lfoot -20.446 -13.4221
ltoes 0.254696
997
root 34.23 15.4859 -8.73816 -161.975 -61.6727 170.959
lowerback 31.134 2.56383 -3.74106
upperback 8.32841 0.746484 -1.94066
thorax -7.66547 -0.0913202 -0.229438
lowerneck -22.2328 12.2988 6.32493
upperneck 19.9288 20.0567 -19.7834
head 13.3933 6.94624 -4.69654
rclavicle 4.71244e-014 -2.31833e-014
rhumerus -20.7128 1.69229 -82.08
rradius 43.5578
rwrist -23.2217
rhand -16.1014 -21.8011
rfingers 7.12502
rthumb 10.1024 -51.5386
lclavicle 4.71244e-014 -2.31833e-014
lhumerus -22.3972 -8.18141 81.3031
lradius 39.4309
lwrist 22.0552
lhand -27.1854 -13.3674
lfingers 7.12502
lthumb -0.59914 16.6115
rfemur -48.5104 -13.5026 16.614
rtibia 55.3717
rfoot -15.8714 -1.91711
rtoes 6.2782
lfemur -15.7596 -14.58 -6.54113
ltibia 50.9496
lfoot -19.72 -13.0599
ltoes -2.58401
